<svg xmlns="http://www.w3.org/2000/svg" version="1.1" xmlns:xlink="http://www.w3.org/1999/xlink" xmlns:svgjs="http://svgjs.dev/svgjs" width="1440" height="560" preserveAspectRatio="none" viewBox="0 0 1440 560"><g mask="url(&quot;#SvgjsMask1004&quot;)" fill="none"><rect width="1440" height="560" x="0" y="0" fill="rgba(0, 155, 210, 1)"></rect><path d="M0,700.088C133.403,697.158,151.246,482.143,262.858,409.015C372.812,336.973,548.702,391.128,629.639,287.547C709.831,184.92,678.525,33.967,656.18,-94.344C634.32,-219.872,588.842,-341.669,503.575,-436.35C419.236,-530,306.059,-597.175,182.23,-620.62C64.466,-642.917,-59.295,-618.906,-165.309,-562.992C-260.782,-512.638,-309.169,-410.587,-376.281,-326.049C-440.108,-245.648,-510.63,-174.012,-549.525,-79.01C-597.669,38.582,-688.967,175.409,-627.002,286.342C-563.773,399.539,-378.605,349.313,-270.384,420.726C-159.982,493.578,-132.241,702.992,0,700.088" fill="#007ca8"></path><path d="M1440 1118.587C1543.568 1135.414 1652.8029999999999 1081.242 1727.865 1007.927 1798.09 939.337 1782.016 823.775 1829.692 737.966 1883.504 641.113 2037.92 585.963 2023.333 476.129 2008.799 366.69399999999996 1836.153 362.611 1768.278 275.546 1694.28 180.62599999999998 1729.212 0.2899999999999636 1617.4859999999999-44.46199999999999 1509.225-87.82600000000002 1405.925 36.50999999999999 1301.588 88.61200000000002 1216.569 131.067 1129.534 165.55700000000002 1062.341 232.75599999999997 991.399 303.704 917.993 383.63599999999997 906.885 483.35 895.871 582.218 947.6800000000001 677.042 1003.69 759.256 1053.659 832.602 1138.058 866.8109999999999 1206.565 923.232 1286.506 989.069 1337.778 1101.979 1440 1118.587" fill="#00bafc"></path></g><defs><mask id="SvgjsMask1004"><rect width="1440" height="560" fill="#ffffff"></rect></mask></defs></svg>