<?xml version="1.0" standalone="no"?>
<!DOCTYPE svg PUBLIC "-//W3C//DTD SVG 20010904//EN"
 "http://www.w3.org/TR/2001/REC-SVG-20010904/DTD/svg10.dtd">
<svg version="1.0" xmlns="http://www.w3.org/2000/svg"
 width="200.000000pt" height="200.000000pt" viewBox="0 0 200.000000 200.000000"
 preserveAspectRatio="xMidYMid meet">
<metadata>
Created by potrace 1.14, written by Peter Selinger 2001-2017
</metadata>
<g transform="translate(0.000000,200.000000) scale(0.100000,-0.100000)"
fill="#000000" stroke="none">
<path d="M0 1000 l0 -1000 1000 0 1000 0 0 1000 0 1000 -1000 0 -1000 0 0
-1000z m638 183 c3 -51 4 -53 31 -53 17 0 31 -7 35 -16 8 -20 8 -268 0 -288
-5 -14 -28 -16 -146 -16 -90 0 -137 4 -133 10 3 6 24 10 46 10 28 0 39 4 39
15 0 13 -12 15 -67 13 -42 -2 -68 -8 -71 -15 -2 -7 3 -13 12 -13 9 0 16 -4 16
-10 0 -5 -20 -10 -45 -10 -42 0 -46 2 -60 36 -21 50 -19 107 5 156 16 32 20
62 20 133 0 51 3 95 7 99 4 3 75 5 157 4 l151 -3 3 -52z m297 28 c3 -6 -16
-11 -42 -13 l-48 -3 0 -55 c0 -55 0 -55 33 -58 29 -3 32 -1 32 22 0 16 -6 26
-15 26 -8 0 -15 5 -15 10 0 6 14 10 30 10 29 0 30 -1 30 -51 l0 -51 -56 4
c-33 3 -60 11 -65 19 -13 21 -11 123 3 137 14 14 104 16 113 3z m195 -95 l0
-54 -32 1 c-31 2 -33 5 -33 37 0 29 4 36 23 38 12 2 22 10 22 18 0 8 5 14 10
14 6 0 10 -24 10 -54z m203 -10 c1 -25 -1 -46 -4 -46 -8 0 -16 73 -11 90 7 21
14 2 15 -44z m-292 -7 c5 -35 4 -36 -25 -37 -17 0 -34 4 -37 10 -12 19 2 38
28 38 15 0 22 4 17 11 -3 6 -15 9 -25 6 -11 -3 -19 -1 -19 5 0 5 12 8 27 6 23
-2 29 -9 34 -39z m167 -11 c-2 -42 -7 -54 -22 -56 -10 -2 -22 0 -27 5 -6 6 -1
9 12 9 12 -1 24 4 26 11 3 7 -3 10 -15 7 -25 -7 -46 20 -38 51 5 20 13 25 37
25 30 0 30 0 27 -52z m82 48 c0 -2 3 -11 6 -20 5 -13 -1 -16 -26 -16 -21 0
-30 -4 -27 -12 2 -7 14 -13 26 -12 13 0 18 -3 12 -9 -27 -27 -63 18 -47 59 5
12 56 21 56 10z m-262 -153 c2 -9 -10 -13 -43 -13 l-46 0 3 -57 c3 -57 3 -58
36 -61 29 -3 32 -1 32 22 0 16 -6 26 -15 26 -8 0 -15 7 -15 15 0 10 10 15 30
15 29 0 30 -1 30 -50 l0 -51 -62 3 -63 3 -3 70 c-3 58 0 72 15 83 22 16 95 12
101 -5z m152 -84 c0 -27 -4 -49 -10 -49 -5 0 -10 25 -10 56 0 34 4 53 10 49 6
-3 10 -28 10 -56z m27 -31 c-2 -18 -4 -4 -4 32 0 36 2 50 4 33 2 -18 2 -48 0
-65z m-67 17 c6 -42 2 -44 -60 -36 -20 2 -9 32 15 43 14 6 25 15 25 20 0 12
-14 10 -28 -4 -7 -7 -12 -8 -12 -2 0 17 13 25 35 22 15 -2 21 -13 25 -43z
m148 33 c22 -22 13 -38 -19 -38 -27 0 -30 -2 -19 -15 8 -9 22 -13 34 -10 20 5
20 4 -1 -6 -17 -9 -26 -9 -38 1 -27 23 -13 80 20 80 6 0 16 -5 23 -12z m101
-21 l13 -32 11 33 c5 17 14 32 18 32 8 0 -11 -63 -31 -99 -6 -12 -16 -21 -22
-21 -7 0 -6 5 2 15 11 13 10 23 0 55 -7 22 -16 40 -20 40 -14 0 -28 -25 -33
-55 -3 -23 -4 -19 -6 15 -1 43 1 46 27 48 23 2 30 -4 41 -31z"/>
<path d="M332 1123 l2 -98 3 93 4 92 77 -2 77 -2 -67 -3 -68 -4 0 -84 c0 -54
6 -99 16 -124 9 -22 14 -46 11 -53 -4 -8 -6 -7 -6 5 -1 13 -10 17 -46 17 l-45
0 0 -40 0 -40 44 0 c26 0 46 5 49 13 4 10 6 10 6 0 1 -9 20 -13 61 -13 l60 0
0 49 c0 46 -1 48 -24 44 -17 -4 -33 3 -50 20 -26 26 -35 57 -16 57 6 0 10 -8
10 -18 0 -26 20 -42 52 -42 27 0 28 2 28 45 0 52 -16 65 -56 47 -13 -7 -24 -8
-24 -3 0 12 26 21 60 21 16 0 30 7 34 15 3 9 19 15 41 15 33 0 35 2 35 34 0
34 -1 35 -47 39 l-48 3 52 2 52 2 4 -42 4 -43 1 48 2 47 -145 0 -145 0 2 -97z
m28 -203 c0 -23 -13 -32 -34 -24 -19 7 -21 40 -3 47 20 7 37 -4 37 -23z"/>
<path d="M320 920 c0 -5 7 -10 15 -10 8 0 15 5 15 10 0 6 -7 10 -15 10 -8 0
-15 -4 -15 -10z"/>
<path d="M530 970 l0 -140 80 0 80 0 0 140 0 140 -80 0 -80 0 0 -140z m93 123
c-7 -2 -19 -2 -25 0 -7 3 -2 5 12 5 14 0 19 -2 13 -5z m11 -79 c22 -8 21 -61
-1 -72 -27 -15 -63 3 -63 31 0 38 27 55 64 41z m-1 -101 c-7 -2 -21 -2 -30 0
-10 3 -4 5 12 5 17 0 24 -2 18 -5z"/>
<path d="M590 996 c-18 -22 -5 -48 22 -44 17 2 23 10 23 28 0 29 -26 38 -45
16z"/>
<path d="M310 995 c0 -9 9 -15 25 -15 16 0 25 6 25 15 0 9 -9 15 -25 15 -16 0
-25 -6 -25 -15z"/>
<path d="M310 845 c0 -9 9 -15 25 -15 16 0 25 6 25 15 0 9 -9 15 -25 15 -16 0
-25 -6 -25 -15z"/>
<path d="M1074 1115 c-8 -21 3 -48 19 -43 19 7 22 58 2 58 -8 0 -18 -7 -21
-15z"/>
<path d="M990 1085 c0 -8 6 -15 14 -15 8 0 16 7 20 15 4 10 -1 15 -14 15 -11
0 -20 -7 -20 -15z"/>
<path d="M1162 1103 c3 -30 23 -41 31 -18 9 21 -2 45 -20 45 -10 0 -13 -9 -11
-27z"/>
<path d="M1245 1120 c-3 -5 3 -10 14 -10 12 0 21 5 21 10 0 6 -6 10 -14 10 -8
0 -18 -4 -21 -10z"/>
<path d="M1090 864 c0 -17 22 -14 28 4 2 7 -3 12 -12 12 -9 0 -16 -7 -16 -16z"/>
<path d="M1246 905 c-4 -11 1 -15 19 -15 18 0 23 4 19 15 -4 8 -12 15 -19 15
-7 0 -15 -7 -19 -15z"/>
</g>
</svg>
